<svg xmlns="http://www.w3.org/2000/svg" viewBox="0 0 32 40" x="0px" y="0px"><path d="M16,1.5C8.005,1.5,1.5,8.005,1.5,16s6.505,14.5,14.5,14.5,14.5-6.505,14.5-14.5S23.995,1.5,16,1.5Zm0,28c-7.444,0-13.5-6.056-13.5-13.5S8.556,2.5,16,2.5s13.5,6.056,13.5,13.5-6.056,13.5-13.5,13.5Z"/><path d="M16,3.5c-6.893,0-12.5,5.607-12.5,12.5s5.607,12.5,12.5,12.5,12.5-5.607,12.5-12.5S22.893,3.5,16,3.5Zm.5,23.975v-.495c0-.276-.224-.5-.5-.5s-.5,.224-.5,.5v.495c-5.941-.257-10.717-5.033-10.975-10.975h.494c.276,0,.5-.224,.5-.5s-.224-.5-.5-.5h-.494c.257-5.942,5.034-10.717,10.975-10.975v.495c0,.276,.224,.5,.5,.5s.5-.224,.5-.5v-.495c5.941,.257,10.717,5.033,10.975,10.975h-.494c-.276,0-.5,.224-.5,.5s.224,.5,.5,.5h.494c-.257,5.942-5.034,10.717-10.975,10.975Z"/><path d="M17.045,16.477c.067-.146,.11-.306,.11-.477,0-.456-.271-.842-.655-1.03v-6.361c0-.276-.224-.5-.5-.5s-.5,.224-.5,.5v6.361c-.384,.188-.655,.574-.655,1.03,0,.637,.519,1.155,1.155,1.155,.094,0,.177-.032,.264-.053l2.136,2.574c.099,.119,.241,.181,.385,.181,.112,0,.226-.038,.319-.115,.213-.176,.242-.492,.065-.704l-2.124-2.56Z"/><text x="0" y="47" fill="#000000" font-size="5px" font-weight="bold" font-family="'Helvetica Neue', Helvetica, Arial-Unicode, Arial, Sans-serif">Created by Kiki Rizky</text><text x="0" y="52" fill="#000000" font-size="5px" font-weight="bold" font-family="'Helvetica Neue', Helvetica, Arial-Unicode, Arial, Sans-serif">from the Noun Project</text></svg>